<?xml version="1.0" standalone="no"?>
<!DOCTYPE svg PUBLIC "-//W3C//DTD SVG 20010904//EN"
 "http://www.w3.org/TR/2001/REC-SVG-20010904/DTD/svg10.dtd">
<svg version="1.0" xmlns="http://www.w3.org/2000/svg"
 width="300.000000pt" height="300.000000pt" viewBox="0 0 300.000000 300.000000"
 preserveAspectRatio="xMidYMid meet">
<metadata>
Created by potrace 1.10, written by Peter Selinger 2001-2011
</metadata>
<g transform="translate(0.000000,300.000000) scale(0.100000,-0.100000)"
fill="#000000" stroke="none">
<path d="M479 2487 c-115 -77 -128 -303 -38 -662 l20 -80 -26 -58 c-26 -57
-26 -57 -67 -54 -51 4 -148 -10 -165 -25 -7 -6 -13 -20 -13 -32 0 -40 18 -46
106 -39 l83 6 -15 -49 c-9 -27 -18 -96 -21 -154 l-6 -105 -49 -23 c-76 -37
-96 -86 -47 -113 15 -7 29 -4 64 17 34 19 46 23 49 12 3 -7 10 -31 17 -52 48
-157 249 -353 457 -448 99 -45 218 -84 340 -110 94 -20 135 -23 332 -23 197 0
238 3 332 23 281 60 478 159 633 316 84 84 144 173 165 241 6 22 13 46 16 53
3 11 15 7 49 -12 35 -21 49 -24 64 -17 49 27 29 76 -47 113 l-49 23 -6 105
c-3 58 -12 127 -21 154 l-15 49 81 -7 c87 -7 108 0 108 39 0 12 -6 27 -12 33
-19 15 -116 30 -165 26 l-42 -4 -26 58 c-26 56 -26 58 -11 117 55 214 75 388
58 501 -23 144 -78 204 -187 204 -100 0 -213 -47 -376 -157 -125 -85 -107 -81
-196 -50 -142 48 -218 61 -358 61 -134 0 -222 -16 -359 -63 -33 -12 -64 -21
-70 -21 -6 0 -43 23 -81 51 -87 63 -214 133 -290 159 -82 28 -172 27 -216 -3z
m150 -19 c11 -11 12 -10 6 2 -6 12 -5 13 6 3 7 -7 21 -13 31 -13 10 0 26 -4
36 -9 9 -5 37 -19 62 -31 25 -13 53 -30 64 -39 10 -9 20 -14 23 -12 7 5 123
-71 123 -81 0 -4 7 -8 15 -8 8 0 15 -4 15 -9 0 -5 17 -12 38 -15 26 -5 63 2
127 22 50 16 103 28 117 28 15 -1 25 1 22 5 -2 3 39 11 92 17 93 11 264 -1
264 -18 0 -4 11 -5 25 -3 22 5 65 -6 168 -43 64 -24 85 -18 199 57 201 131
333 177 419 147 108 -38 129 -248 57 -578 -11 -52 -24 -101 -28 -109 -11 -21
26 -121 57 -153 23 -24 35 -28 82 -28 31 0 66 -3 79 -6 40 -11 23 -23 -32 -21
-86 3 -112 -34 -86 -123 6 -19 12 -73 15 -120 6 -95 19 -123 70 -147 19 -9 35
-23 35 -30 0 -15 -16 -18 -24 -4 -3 5 -15 11 -26 14 -23 6 -80 -36 -80 -59 0
-60 -130 -234 -243 -323 -127 -102 -332 -187 -557 -232 -97 -20 -147 -24 -314
-24 -151 0 -200 3 -204 13 -2 6 -8 9 -13 6 -6 -3 -41 0 -79 6 -38 6 -73 12
-77 12 -5 0 -13 4 -20 10 -7 5 -22 11 -35 12 -76 10 -268 95 -378 169 -64 43
-166 143 -204 202 -46 70 -76 124 -76 137 0 5 -10 23 -21 40 -22 30 -44 34
-91 13 -35 -14 -18 14 27 46 24 18 47 40 50 50 3 9 8 57 10 105 3 55 9 91 17
96 10 6 10 8 0 8 -7 0 -10 5 -6 11 3 6 8 25 11 43 7 54 -42 82 -114 66 -35 -8
-39 -5 -23 20 7 10 10 11 10 2 0 -9 5 -9 18 -3 9 6 42 13 73 16 67 7 101 37
119 103 11 41 6 104 -13 152 -3 8 -8 31 -12 50 -3 19 -10 58 -16 85 -5 28 -12
109 -15 180 -6 172 12 238 76 283 37 25 107 30 129 10z"/>
<path d="M600 2460 c0 -8 -11 -11 -30 -8 -16 3 -30 1 -30 -4 0 -4 -6 -8 -13
-8 -42 0 -87 -113 -87 -215 0 -54 24 -243 40 -310 5 -22 17 -73 26 -113 15
-63 15 -75 3 -83 -8 -5 -10 -9 -6 -9 5 0 0 -13 -9 -30 -14 -22 -16 -36 -9 -56
10 -28 57 -62 86 -63 22 -1 123 -43 127 -53 2 -5 8 -6 13 -2 5 3 12 -2 15 -10
3 -9 13 -16 21 -16 14 0 43 -23 43 -34 0 -3 -7 -6 -15 -6 -8 0 -15 4 -15 10 0
5 -3 9 -7 8 -8 -2 -64 23 -73 32 -18 18 -149 60 -189 60 -25 0 -76 -42 -65
-52 2 -3 -2 -25 -9 -49 -7 -24 -15 -72 -16 -106 -2 -52 1 -65 19 -83 20 -20
28 -21 79 -14 76 12 191 11 188 0 -1 -5 -18 -10 -37 -11 -148 -8 -185 -16
-213 -46 -21 -23 -26 -36 -21 -52 4 -12 7 -29 7 -37 0 -8 22 -50 48 -93 45
-73 100 -135 177 -200 68 -58 259 -154 367 -186 106 -30 125 -35 199 -46 21
-3 42 -8 47 -10 7 -5 95 -13 204 -19 115 -6 283 17 515 71 49 11 222 92 296
138 152 95 287 259 309 376 5 27 2 39 -15 56 -28 31 -73 41 -187 42 -57 1 -73
4 -73 15 0 12 14 14 73 12 39 -2 97 -7 127 -11 48 -6 57 -5 74 14 16 18 18 31
13 103 -7 105 -12 127 -35 158 -35 47 -107 37 -256 -37 -86 -42 -113 -49 -85
-20 19 18 152 81 217 102 54 17 82 37 82 59 0 6 -9 36 -19 66 -11 30 -17 63
-15 74 3 12 7 32 10 46 3 14 9 39 14 55 5 17 19 84 30 150 46 271 10 422 -105
438 -68 10 -198 -45 -355 -150 -134 -89 -134 -89 -209 -70 -36 10 -72 17 -78
17 -24 0 -43 -58 -43 -130 0 -40 -4 -70 -10 -70 -6 0 -10 37 -10 91 0 50 -5
99 -10 110 -27 49 -144 69 -182 31 -20 -19 -21 -32 -23 -204 -2 -206 -2 -208
-13 -208 -11 0 -13 30 -15 223 -2 168 -2 169 -28 191 -23 20 -33 22 -78 16
-28 -4 -64 -16 -79 -27 -26 -19 -27 -25 -32 -121 -3 -55 -8 -104 -12 -108 -9
-8 -10 -4 -13 86 -3 115 -20 133 -100 106 -82 -28 -97 -24 -199 52 -64 47
-269 152 -298 152 -9 0 -24 7 -32 16 -10 10 -16 11 -16 4z m128 -85 c42 -20
127 -70 189 -111 61 -41 124 -76 140 -78 15 -1 57 8 92 21 35 13 64 23 65 23
0 0 0 -45 -2 -101 -3 -84 -1 -104 14 -120 23 -26 50 -24 69 5 13 19 16 48 14
132 -1 60 2 109 7 111 5 2 37 7 72 11 l62 9 0 -209 c0 -125 4 -217 10 -229 14
-26 66 -26 80 0 6 12 10 104 10 229 l0 209 63 -9 c34 -4 66 -9 71 -11 5 -2 8
-51 7 -111 -2 -115 10 -156 48 -156 40 0 52 32 51 131 -1 52 -1 97 -1 101 1 4
24 -1 52 -12 93 -37 113 -32 241 53 141 94 249 146 319 154 76 8 95 -10 115
-107 19 -93 8 -220 -36 -414 -36 -157 -37 -179 -5 -235 14 -23 25 -44 25 -46
0 -1 -17 -5 -37 -9 -79 -13 -286 -114 -304 -148 -12 -23 12 -68 37 -68 9 0 46
18 82 39 75 44 241 106 253 94 11 -12 39 -168 39 -219 0 -43 0 -43 -27 -33
-16 6 -78 14 -139 16 -121 6 -154 -2 -154 -40 0 -44 13 -50 112 -52 51 -1 117
-5 146 -10 53 -8 54 -8 48 -37 -28 -142 -199 -321 -401 -421 -392 -194 -918
-194 -1310 0 -202 100 -373 279 -401 421 -6 29 -5 29 48 37 29 5 92 9 140 10
94 2 118 12 118 51 0 39 -31 47 -154 41 -61 -2 -123 -10 -138 -16 -28 -10 -28
-10 -28 33 0 51 28 207 39 219 12 12 178 -50 253 -94 36 -21 73 -39 82 -39 23
0 46 39 37 63 -13 36 -221 140 -307 154 -19 3 -34 7 -34 8 0 2 11 23 25 46 32
56 31 78 -4 235 -45 196 -56 322 -37 413 8 41 24 83 33 94 27 30 114 18 211
-28z"/>
<path d="M932 1776 c-37 -20 -62 -66 -62 -115 0 -37 6 -49 39 -82 33 -33 45
-39 82 -39 123 0 180 131 94 217 -28 28 -40 33 -81 33 -27 -1 -59 -6 -72 -14z
m126 -45 c41 -38 43 -84 7 -123 -50 -54 -115 -43 -148 23 -21 44 -10 86 31
112 40 24 73 21 110 -12z"/>
<path d="M1915 1757 c-86 -86 -29 -217 94 -217 37 0 49 6 82 39 34 33 39 45
39 82 -1 82 -50 129 -133 129 -42 0 -54 -5 -82 -33z m123 -8 c19 -7 36 -23 47
-45 15 -33 15 -37 -2 -72 -24 -49 -62 -67 -107 -52 -48 16 -69 51 -61 102 5
30 15 44 39 59 36 22 42 23 84 8z"/>
<path d="M1328 1509 c-10 -5 -18 -21 -18 -35 0 -28 42 -94 84 -133 30 -28 21
-41 -29 -41 -39 0 -55 -16 -55 -52 0 -20 6 -31 22 -37 26 -9 97 3 138 24 27
14 33 14 60 0 41 -21 112 -33 138 -24 16 6 22 17 22 37 0 36 -16 52 -54 52
-51 0 -60 13 -30 41 42 39 84 105 84 133 0 28 -29 50 -54 40 -9 -3 -31 -27
-50 -53 -19 -25 -46 -57 -61 -71 l-27 -25 -36 41 c-20 23 -51 57 -68 78 -33
39 -39 41 -66 25z m283 -110 c-49 -70 -50 -94 -2 -126 47 -31 21 -39 -51 -14
-53 18 -90 18 -113 0 -5 -4 -27 -10 -47 -14 -45 -9 -51 7 -12 27 15 7 33 22
40 33 11 18 8 28 -32 85 -24 36 -39 67 -33 69 6 2 18 -7 27 -20 31 -46 93 -99
116 -99 22 0 59 34 119 109 10 13 21 20 25 17 3 -4 -13 -33 -37 -67z"/>
</g>
</svg>